<?xml version="1.0" encoding="UTF-8"?>
<svg version="1.1" xmlns="http://www.w3.org/2000/svg" width="500" height="500">
<path d="M0 0 C165 0 330 0 500 0 C500 165 500 330 500 500 C335 500 170 500 0 500 C0 335 0 170 0 0 Z " fill="#FEFEFE" transform="translate(0,0)"/>
<path d="M0 0 C1.15113281 0.51949219 2.30226563 1.03898437 3.48828125 1.57421875 C11.06541001 5.32345547 17.08105371 10.00187048 23 16 C24.15628906 17.14082031 24.15628906 17.14082031 25.3359375 18.3046875 C34.91000087 28.27086268 40.74440646 39.62815533 44 53 C44.28617187 54.13501953 44.28617187 54.13501953 44.578125 55.29296875 C47.84131895 76.23179661 42.83758479 96.87155376 30.796875 114.1640625 C28.63810751 116.90403662 26.398667 119.46853483 24 122 C23.33742188 122.70382813 22.67484375 123.40765625 21.9921875 124.1328125 C7.33550647 138.34366293 -12.58118003 144.76943198 -32.70092773 144.53295898 C-40.81833986 144.20755893 -48.25356056 142.38218227 -56 140 C-58.33254555 139.33058225 -60.66577776 138.66354759 -63 138 C-73.88158544 154.20163676 -84.61716945 170.47217716 -95 187 C-94.08863281 186.86722656 -93.17726563 186.73445312 -92.23828125 186.59765625 C-76.56977038 184.46174979 -60.80945777 183.73602019 -45 184 C-47.29787059 188.04755636 -49.98171656 191.68019671 -52.875 195.3125 C-53.35187256 195.91570068 -53.82874512 196.51890137 -54.32006836 197.14038086 C-58.57344585 202.5036337 -62.90222438 207.80504347 -67.23193359 213.10668945 C-71.38176155 218.2020089 -75.39612297 223.3818219 -79.36328125 228.62109375 C-81.35548034 231.21509484 -83.43222583 233.72426026 -85.54296875 236.22265625 C-86.14689453 236.94324219 -86.75082031 237.66382813 -87.37304688 238.40625 C-88.56290127 239.82024273 -89.76313439 241.22558048 -90.97460938 242.62109375 C-91.51279297 243.26304687 -92.05097656 243.905 -92.60546875 244.56640625 C-93.33479614 245.41634155 -93.33479614 245.41634155 -94.07885742 246.28344727 C-95.20720496 247.99238718 -95.20720496 247.99238718 -94.74731445 250.12866211 C-94.12346822 252.10028852 -94.12346822 252.10028852 -92.4375 253.375 C-91 255 -91 255 -90.44543457 257.5942688 C-91.30786058 262.89065225 -94.67977087 265.46789081 -98.43554688 269.11669922 C-99.22558609 269.90761459 -100.01562531 270.69852997 -100.8296051 271.51341248 C-103.44534998 274.12497619 -106.08170671 276.71464623 -108.71875 279.3046875 C-110.53609376 281.11084125 -112.3521176 282.91832399 -114.16687012 284.7270813 C-118.45897448 288.99861504 -122.76416369 293.25651343 -127.0759902 297.50810444 C-131.98493623 302.34995379 -136.87682768 307.20887986 -141.76736736 312.069309 C-151.82606137 322.06531095 -161.90596335 332.03969761 -172 342 C-171.04832827 343.1186602 -170.0954592 344.23630186 -169.14208984 345.35351562 C-168.61159027 345.97601196 -168.0810907 346.5985083 -167.53451538 347.23986816 C-165.64481097 349.4074117 -163.63178383 351.44099503 -161.625 353.5 C-147.89117509 368.78553869 -143.16745582 388.6680228 -143.86376953 408.81787109 C-145.02989039 427.49670307 -154.13127791 443.89416578 -167 457 C-167.67675781 457.70125 -168.35351562 458.4025 -169.05078125 459.125 C-179.53286722 469.23202075 -194.30782796 476.46489831 -208.953125 476.46875 C-209.77520447 476.47636353 -210.59728394 476.48397705 -211.4442749 476.49182129 C-213.17196646 476.50254949 -214.89972248 476.50550531 -216.62744141 476.50097656 C-219.23062884 476.50000721 -221.83083245 476.54164774 -224.43359375 476.5859375 C-234.74718453 476.65941304 -242.63386846 475.63508441 -252 471 C-253.46747681 470.31599121 -253.46747681 470.31599121 -254.96459961 469.61816406 C-271.8477596 461.53912537 -284.36788409 445.17883535 -291 428 C-293.60679018 419.84383953 -295.023918 411.49096571 -296 403 C-296.53625 402.87625 -297.0725 402.7525 -297.625 402.625 C-311.01798829 399.1005294 -322.88121486 392.39929512 -333 383 C-333.92425781 382.16726563 -334.84851563 381.33453125 -335.80078125 380.4765625 C-347.02466853 369.88916122 -354.23210728 357.60913227 -359 343 C-359.4017041 341.81446533 -359.4017041 341.81446533 -359.81152344 340.60498047 C-362.19631077 332.89341192 -362.54098511 325.53769253 -362.5 317.5 C-362.49790527 316.84280975 -362.49581055 316.18561951 -362.49365234 315.5085144 C-362.35712191 294.6651844 -356.8586947 276.55479862 -343.15234375 260.5390625 C-341.94930651 259.11987156 -340.76425962 257.68289044 -339.65428257 256.18978882 C-334.57728545 249.38172811 -328.73297893 243.42917437 -322.74389648 237.4375 C-321.61922181 236.3051885 -320.49494504 235.17248166 -319.37103271 234.03941345 C-316.34093412 230.98753368 -313.30443934 227.9421003 -310.2659862 224.8985405 C-308.36583656 222.99473269 -306.4669878 221.08963689 -304.56855965 219.18411255 C-297.94047035 212.53160152 -291.30674569 205.88476461 -284.66821289 199.24267578 C-278.48566377 193.05648035 -272.31641085 186.85723513 -266.15295929 180.65201759 C-260.85037087 175.31476301 -255.53822884 169.98714406 -250.21862847 164.66684532 C-247.0457489 161.49317276 -243.87697545 158.31564661 -240.71795464 155.12817383 C-237.75182109 152.13591767 -234.77400563 149.15580675 -231.78675842 146.18463326 C-230.69318746 145.09288042 -229.60387587 143.99684183 -228.51919746 142.89625359 C-227.03751453 141.39417035 -225.54121914 139.90833087 -224.04026794 138.42553711 C-223.20684089 137.59009872 -222.37341383 136.75466034 -221.51473141 135.89390564 C-218.56452862 133.67203587 -216.6733622 133.12977646 -213 133 C-209.625 134.9375 -209.625 134.9375 -207 137 C-206.0821875 136.14277344 -205.164375 135.28554687 -204.21875 134.40234375 C-192.65669202 123.62244354 -192.65669202 123.62244354 -186.921875 118.671875 C-184.58894926 116.64241927 -182.29488755 114.572353 -180 112.5 C-178.33358753 110.99971761 -176.66693061 109.49970668 -175 108 C-174.27296875 107.34386719 -173.5459375 106.68773437 -172.796875 106.01171875 C-172.12140625 105.40972656 -171.4459375 104.80773437 -170.75 104.1875 C-170.16734375 103.66542969 -169.5846875 103.14335938 -168.984375 102.60546875 C-166.45630171 100.56011812 -163.70571367 98.80380911 -161 97 C-161 104.92 -161 112.84 -161 121 C-149.1700096 114.59522813 -137.38077361 108.17898481 -125.81713867 101.3034668 C-125.07826416 100.8681665 -124.33938965 100.43286621 -123.578125 99.984375 C-122.93262695 99.59991211 -122.28712891 99.21544922 -121.62207031 98.81933594 C-120 98 -120 98 -118 98 C-118.58463817 102.83711161 -119.56689925 107.2411726 -121.0625 111.875 C-121.27221436 112.53048828 -121.48192871 113.18597656 -121.69799805 113.86132812 C-122.17845133 115.36111462 -122.6614592 116.86008423 -123.14648438 118.35839844 C-124.14125904 121.43719187 -125.1256321 124.51922673 -126.109375 127.6015625 C-128.06779965 133.73602057 -130.03221196 139.86853968 -132 146 C-131.36835938 145.71914551 -130.73671875 145.43829102 -130.0859375 145.14892578 C-117.95633759 139.76357568 -105.80396304 134.43931457 -93.5625 129.3125 C-92.53318359 128.8788916 -91.50386719 128.4452832 -90.44335938 127.99853516 C-89.01926758 127.40564697 -89.01926758 127.40564697 -87.56640625 126.80078125 C-86.31259155 126.27738159 -86.31259155 126.27738159 -85.03344727 125.7434082 C-83 125 -83 125 -81 125 C-81 124.34 -81 123.68 -81 123 C-81.99 122.67 -82.98 122.34 -84 122 C-97.96776682 106.90895123 -105.75222781 87.29140406 -105.46850586 66.71606445 C-104.74822792 49.22440624 -97.80147425 31.98920293 -86 19 C-85.34644531 18.25492188 -84.69289063 17.50984375 -84.01953125 16.7421875 C-63.35499731 -5.46559943 -27.70405924 -12.82896061 0 0 Z " fill="#545454" transform="translate(435,24)"/>
<path d="M0 0 C1.15113281 0.51949219 2.30226563 1.03898437 3.48828125 1.57421875 C11.06541001 5.32345547 17.08105371 10.00187048 23 16 C23.77085937 16.76054688 24.54171875 17.52109375 25.3359375 18.3046875 C34.91000087 28.27086268 40.74440646 39.62815533 44 53 C44.19078125 53.75667969 44.3815625 54.51335937 44.578125 55.29296875 C47.84131895 76.23179661 42.83758479 96.87155376 30.796875 114.1640625 C28.63810751 116.90403662 26.398667 119.46853483 24 122 C23.33742188 122.70382813 22.67484375 123.40765625 21.9921875 124.1328125 C7.33550647 138.34366293 -12.58118003 144.76943198 -32.70092773 144.53295898 C-40.81833986 144.20755893 -48.25356056 142.38218227 -56 140 C-58.33254555 139.33058225 -60.66577776 138.66354759 -63 138 C-73.88158544 154.20163676 -84.61716945 170.47217716 -95 187 C-94.08863281 186.86722656 -93.17726563 186.73445312 -92.23828125 186.59765625 C-76.56977038 184.46174979 -60.80945777 183.73602019 -45 184 C-47.29787059 188.04755636 -49.98171656 191.68019671 -52.875 195.3125 C-53.35187256 195.91570068 -53.82874512 196.51890137 -54.32006836 197.14038086 C-58.57344585 202.5036337 -62.90222438 207.80504347 -67.23193359 213.10668945 C-70.55669168 217.18895616 -73.8072199 221.31368055 -77 225.5 C-78.66406375 227.66873883 -80.33020215 229.83568967 -82 232 C-82.5372168 232.69818848 -83.07443359 233.39637695 -83.62792969 234.11572266 C-85.36366705 236.35873194 -87.11720719 238.58674893 -88.875 240.8125 C-89.42285156 241.52535156 -89.97070312 242.23820313 -90.53515625 242.97265625 C-91.05722656 243.6275 -91.57929688 244.28234375 -92.1171875 244.95703125 C-92.57722168 245.54460205 -93.03725586 246.13217285 -93.51123047 246.73754883 C-95 248 -95 248 -99 248 C-99.2475 247.38125 -99.495 246.7625 -99.75 246.125 C-100.7799372 243.90335776 -100.7799372 243.90335776 -102.67802429 243.25210571 C-106.13532361 241.38778637 -108.6616876 238.60725089 -111.40161133 235.84130859 C-112.03468704 235.21013123 -112.66776276 234.57895386 -113.32002258 233.9286499 C-115.41227677 231.84010067 -117.49723995 229.74443421 -119.58203125 227.6484375 C-121.03891614 226.19035983 -122.49617163 224.73265237 -123.95378113 223.27529907 C-127.01078837 220.21672708 -130.06440625 217.15482426 -133.11547852 214.09033203 C-137.01065354 210.17823513 -140.91231 206.2726844 -144.81633472 202.36942101 C-147.82879019 199.35669232 -150.83862202 196.34135393 -153.84760094 193.32515335 C-155.28420628 191.88538266 -156.72140323 190.44620201 -158.15921974 189.00764084 C-160.17873258 186.98593777 -162.19490609 184.96096115 -164.21020508 182.93505859 C-164.79590271 182.34981415 -165.38160034 181.7645697 -165.98504639 181.16159058 C-169.61861611 177.50030666 -173.058682 173.71307442 -176.42244816 169.80228138 C-178.75654127 167.13568593 -181.23927224 164.63559877 -183.7578125 162.14453125 C-184.26875458 161.63500412 -184.77969666 161.12547699 -185.30612183 160.60050964 C-186.91003818 159.0020976 -188.51741745 157.40722383 -190.125 155.8125 C-191.20726709 154.73526293 -192.28929986 153.65779039 -193.37109375 152.58007812 C-195.35940254 150.59985746 -197.34929366 148.62127988 -199.34033203 146.64379883 C-201.89857912 144.10081575 -204.45067651 141.55192072 -207 139 C-205.42775175 134.95572287 -202.54829891 132.49423658 -199.375 129.6875 C-198.83375488 129.20039551 -198.29250977 128.71329102 -197.73486328 128.21142578 C-194.18257165 125.02271294 -190.59849469 121.86964892 -186.9921875 118.7421875 C-184.63979365 116.68499601 -182.31965034 114.59403085 -180 112.5 C-178.33358753 110.99971761 -176.66693061 109.49970668 -175 108 C-174.27296875 107.34386719 -173.5459375 106.68773437 -172.796875 106.01171875 C-172.12140625 105.40972656 -171.4459375 104.80773437 -170.75 104.1875 C-170.16734375 103.66542969 -169.5846875 103.14335938 -168.984375 102.60546875 C-166.45630171 100.56011812 -163.70571367 98.80380911 -161 97 C-161 104.92 -161 112.84 -161 121 C-149.1700096 114.59522813 -137.38077361 108.17898481 -125.81713867 101.3034668 C-124.7088269 100.65051636 -124.7088269 100.65051636 -123.578125 99.984375 C-122.93262695 99.59991211 -122.28712891 99.21544922 -121.62207031 98.81933594 C-120 98 -120 98 -118 98 C-118.58463817 102.83711161 -119.56689925 107.2411726 -121.0625 111.875 C-121.27221436 112.53048828 -121.48192871 113.18597656 -121.69799805 113.86132812 C-122.17845133 115.36111462 -122.6614592 116.86008423 -123.14648438 118.35839844 C-124.14125904 121.43719187 -125.1256321 124.51922673 -126.109375 127.6015625 C-128.06779965 133.73602057 -130.03221196 139.86853968 -132 146 C-131.36835938 145.71914551 -130.73671875 145.43829102 -130.0859375 145.14892578 C-117.95633759 139.76357568 -105.80396304 134.43931457 -93.5625 129.3125 C-92.53318359 128.8788916 -91.50386719 128.4452832 -90.44335938 127.99853516 C-89.01926758 127.40564697 -89.01926758 127.40564697 -87.56640625 126.80078125 C-86.31259155 126.27738159 -86.31259155 126.27738159 -85.03344727 125.7434082 C-83 125 -83 125 -81 125 C-81 124.34 -81 123.68 -81 123 C-82.485 122.505 -82.485 122.505 -84 122 C-97.96776682 106.90895123 -105.75222781 87.29140406 -105.46850586 66.71606445 C-104.74822792 49.22440624 -97.80147425 31.98920293 -86 19 C-85.34644531 18.25492188 -84.69289063 17.50984375 -84.01953125 16.7421875 C-63.35499731 -5.46559943 -27.70405924 -12.82896061 0 0 Z " fill="#545454" transform="translate(435,24)"/>
<path d="M0 0 C1.37502622 1.16328264 2.72944966 2.35134337 4.0625 3.5625 C4.80757813 4.21605469 5.55265625 4.86960937 6.3203125 5.54296875 C20.05013839 18.31868809 28.32141037 37.07262925 29.34765625 55.73828125 C29.97923057 75.62836095 23.96000778 94.61660417 10.75 109.6875 C9.20407818 111.32827938 7.64193898 112.95395913 6.0625 114.5625 C5.38574219 115.26375 4.70898438 115.965 4.01171875 116.6875 C-6.47036722 126.79452075 -21.24532796 134.02739831 -35.890625 134.03125 C-36.71270447 134.03886353 -37.53478394 134.04647705 -38.3817749 134.05432129 C-40.10946646 134.06504949 -41.83722248 134.06800531 -43.56494141 134.06347656 C-46.16812884 134.06250721 -48.76833245 134.10414774 -51.37109375 134.1484375 C-61.68468453 134.22191304 -69.57136846 133.19758441 -78.9375 128.5625 C-79.91581787 128.10649414 -80.89413574 127.65048828 -81.90209961 127.18066406 C-98.8631184 119.06436788 -111.17554027 102.74068868 -117.9375 85.5625 C-124.35519441 66.90522394 -123.56289543 46.37177745 -115.375 28.36328125 C-105.55740439 9.23497675 -90.19396365 -5.06169009 -69.82910156 -12.17382812 C-45.69055462 -19.68559146 -20.27204598 -15.10741728 0 0 Z " fill="#84512B" transform="translate(261.9375,366.4375)"/>
<path d="M0 0 C0 7.92 0 15.84 0 24 C11.8299904 17.59522813 23.61922639 11.17898481 35.18286133 4.3034668 C35.92173584 3.8681665 36.66061035 3.43286621 37.421875 2.984375 C38.06737305 2.59991211 38.71287109 2.21544922 39.37792969 1.81933594 C41 1 41 1 43 1 C42.41536183 5.83711161 41.43310075 10.2411726 39.9375 14.875 C39.72778564 15.53048828 39.51807129 16.18597656 39.30200195 16.86132812 C38.82154867 18.36111462 38.3385408 19.86008423 37.85351562 21.35839844 C36.85874096 24.43719187 35.8743679 27.51922673 34.890625 30.6015625 C32.93220035 36.73602057 30.96778804 42.86853968 29 49 C29.63164062 48.71914551 30.26328125 48.43829102 30.9140625 48.14892578 C38.59713187 44.73776476 46.29573356 41.36297345 54 38 C55.14146484 37.49887695 56.28292969 36.99775391 57.45898438 36.48144531 C60.71665314 35.05656932 63.98187452 33.65069752 67.25 32.25 C68.25417969 31.8080127 69.25835937 31.36602539 70.29296875 30.91064453 C71.23269531 30.51216309 72.17242187 30.11368164 73.140625 29.703125 C73.96079102 29.34895508 74.78095703 28.99478516 75.62597656 28.62988281 C78.46633804 27.87626983 80.20236346 28.17330517 83 29 C84.9921875 30.26953125 84.9921875 30.26953125 86.875 31.8125 C90.43048389 34.61768216 94.02044229 36.84440624 98 39 C96.43660501 43.54175453 93.9550638 47.30852364 91.2734375 51.25 C90.8069278 51.94456299 90.34041809 52.63912598 89.85977173 53.35473633 C88.36922755 55.57281061 86.87259843 57.78668378 85.375 60 C83.42122206 62.89365135 81.470542 65.78935384 79.5234375 68.6875 C79.05162048 69.38963623 78.57980347 70.09177246 78.09368896 70.81518555 C73.88758712 77.10631818 69.89857903 83.51411807 66 90 C67.01255859 89.85667236 68.02511719 89.71334473 69.06835938 89.56567383 C84.62122579 87.40333858 100.30440633 86.73792144 116 87 C113.70212941 91.04755636 111.01828344 94.68019671 108.125 98.3125 C107.40969116 99.21730103 107.40969116 99.21730103 106.67993164 100.14038086 C102.42655415 105.5036337 98.09777562 110.80504347 93.76806641 116.10668945 C90.44330832 120.18895616 87.1927801 124.31368055 84 128.5 C82.33593625 130.66873883 80.66979785 132.83568967 79 135 C78.4627832 135.69818848 77.92556641 136.39637695 77.37207031 137.11572266 C75.63633295 139.35873194 73.88279281 141.58674893 72.125 143.8125 C71.57714844 144.52535156 71.02929688 145.23820313 70.46484375 145.97265625 C69.94277344 146.6275 69.42070312 147.28234375 68.8828125 147.95703125 C68.42277832 148.54460205 67.96274414 149.13217285 67.48876953 149.73754883 C66 151 66 151 62 151 C61.7525 150.38125 61.505 149.7625 61.25 149.125 C60.2200628 146.90335776 60.2200628 146.90335776 58.32197571 146.25210571 C54.86467639 144.38778637 52.3383124 141.60725089 49.59838867 138.84130859 C48.96531296 138.21013123 48.33223724 137.57895386 47.67997742 136.9286499 C45.58772323 134.84010067 43.50276005 132.74443421 41.41796875 130.6484375 C39.96108386 129.19035983 38.50382837 127.73265237 37.04621887 126.27529907 C33.98921163 123.21672708 30.93559375 120.15482426 27.88452148 117.09033203 C23.98934646 113.17823513 20.08769 109.2726844 16.18366528 105.36942101 C13.17120981 102.35669232 10.16137798 99.34135393 7.15239906 96.32515335 C5.71579372 94.88538266 4.27859677 93.44620201 2.84078026 92.00764084 C0.82126742 89.98593777 -1.19490609 87.96096115 -3.21020508 85.93505859 C-3.79590271 85.34981415 -4.38160034 84.7645697 -4.98504639 84.16159058 C-8.61861611 80.50030666 -12.058682 76.71307442 -15.42244816 72.80228138 C-17.75654127 70.13568593 -20.23927224 67.63559877 -22.7578125 65.14453125 C-23.26875458 64.63500412 -23.77969666 64.12547699 -24.30612183 63.60050964 C-25.91003818 62.0020976 -27.51741745 60.40722383 -29.125 58.8125 C-30.20726709 57.73526293 -31.28929986 56.65779039 -32.37109375 55.58007812 C-34.35940254 53.59985746 -36.34929366 51.62127988 -38.34033203 49.64379883 C-40.89857912 47.10081575 -43.45067651 44.55192072 -46 42 C-44.42775175 37.95572287 -41.54829891 35.49423658 -38.375 32.6875 C-37.83375488 32.20039551 -37.29250977 31.71329102 -36.73486328 31.21142578 C-33.18257165 28.02271294 -29.59849469 24.86964892 -25.9921875 21.7421875 C-23.63979365 19.68499601 -21.31965034 17.59403085 -19 15.5 C-1.81005111 0 -1.81005111 0 0 0 Z " fill="#F36C13" transform="translate(274,121)"/>
<path d="M0 0 C2 2 2 2 2.39534187 4.81040382 C1.88664307 8.91455735 0.59357653 10.14273032 -2.32546997 13.03353882 C-2.7908451 13.50262936 -3.25622022 13.97171991 -3.73569763 14.45502532 C-5.29706382 16.0215865 -6.87885867 17.56572125 -8.46142578 19.11083984 C-9.58598281 20.23042935 -10.70920638 21.3513596 -11.83119202 22.473526 C-14.25015943 24.88708193 -16.67834618 27.29081649 -19.11413956 29.68738937 C-22.96990203 33.48108125 -26.80477935 37.29542817 -30.63717651 41.11270142 C-36.70653033 47.15306444 -42.79015258 53.17882771 -48.87974727 59.19877779 C-59.76994946 69.96532051 -70.63619131 80.7560174 -81.49667919 91.55252421 C-85.3058382 95.33809996 -89.12126433 99.11721001 -92.94214177 102.89095664 C-95.32616845 105.2471846 -97.70611227 107.60750701 -100.08518791 109.96873283 C-101.18383725 111.05730586 -102.28424417 112.14410857 -103.38659477 113.22893333 C-109.07799504 118.83134936 -114.44438617 124.41496623 -119 131 C-119.60585937 131.7940625 -120.21171875 132.588125 -120.8359375 133.40625 C-136.73938864 155.0414018 -141.26983634 179.20215636 -137.62060547 205.76123047 C-136.64372862 210.74951612 -135.04125721 215.35491556 -133 220 C-132.55793213 221.03084717 -132.55793213 221.03084717 -132.10693359 222.08251953 C-128.20312403 230.98028206 -123.62865538 238.82301835 -117 246 C-116.21625 246.85207031 -115.4325 247.70414063 -114.625 248.58203125 C-103.67583308 259.99311615 -90.20198309 268.52053291 -74.79296875 272.4921875 C-73 273 -73 273 -72 274 C-71.76636119 275.84891946 -71.58696365 277.70488031 -71.4375 279.5625 C-71.35371094 280.57441406 -71.26992187 281.58632813 -71.18359375 282.62890625 C-71.12300781 283.41136719 -71.06242187 284.19382812 -71 285 C-80.19477581 283.79016108 -88.37508453 280.67845067 -96.5 276.3125 C-97.74209229 275.65048584 -97.74209229 275.65048584 -99.00927734 274.97509766 C-105.24811185 271.57287777 -110.71708672 267.76631844 -116 263 C-116.73992187 262.40058594 -117.47984375 261.80117188 -118.2421875 261.18359375 C-135.54497416 246.84443318 -146.30727967 224.95846162 -150 203 C-151.85338593 173.09714297 -146.97239843 146.59800297 -127.5 122.8125 C-126.675 121.884375 -125.85 120.95625 -125 120 C-124.54118596 119.46042884 -124.08237192 118.92085768 -123.60965443 118.36493587 C-118.38324025 112.25700161 -112.73363567 106.59229618 -107.04760742 100.91821289 C-105.95603144 99.8252793 -104.86466774 98.73213365 -103.77349854 97.63879395 C-100.83198221 94.69274935 -97.88734881 91.7498395 -94.94197631 88.8076508 C-91.85445252 85.72267066 -88.76938267 82.63523802 -85.68391418 79.54820251 C-80.51022885 74.37270297 -75.33444955 69.19930455 -70.1574707 64.02709961 C-64.16891959 58.04400696 -58.18400268 52.0572971 -52.20092696 46.06872946 C-47.05783718 40.92110779 -41.91280898 35.77542966 -36.76614267 30.63138384 C-33.69447445 27.56127575 -30.62348868 24.49049322 -27.55425072 21.4179554 C-24.67465962 18.53548391 -21.79264912 15.65545387 -18.90872192 12.77732086 C-17.84923269 11.71915758 -16.79060035 10.66013555 -15.73287392 9.60021019 C-14.29335316 8.15797196 -12.85046864 6.71909346 -11.40739441 5.28041077 C-10.19596913 4.06955102 -10.19596913 4.06955102 -8.96007061 2.83422947 C-5.95163217 0.01893985 -4.06507939 -0.30488095 0 0 Z " fill="#D8D8D8" transform="translate(212,153)"/>
<path d="M0 0 C6.78696552 2.01541086 12.9358387 4.75606067 19.1875 8.0625 C20.56723999 8.79158569 20.56723999 8.79158569 21.97485352 9.53540039 C29.8191118 13.76187111 37.04342772 18.44059858 44 24 C44.55139648 24.43860352 45.10279297 24.87720703 45.67089844 25.32910156 C68.90830975 44.04478287 88.83408553 66.37590833 101.125 93.75 C101.4329248 94.43006104 101.74084961 95.11012207 102.05810547 95.81079102 C104.12374179 100.62877462 104.12374179 100.62877462 103 104 C94.25181929 95.27504636 85.50638361 86.5473514 76.76438808 77.81620026 C72.70452757 73.76154594 68.64374727 69.70782201 64.58081055 65.65625 C60.65583043 61.74217941 56.73333771 57.82563158 52.81251717 53.90739441 C51.32037727 52.41709427 49.82736128 50.92767075 48.33343315 49.43916321 C46.23221161 47.34525926 44.13420015 45.24818661 42.03686523 43.15039062 C41.42618195 42.54330261 40.81549866 41.9362146 40.18630981 41.31072998 C36.48645519 37.6021332 32.98452289 33.76977953 29.5704155 29.79626083 C27.22902902 27.11815377 24.73503173 24.60998117 22.20703125 22.109375 C21.6937175 21.5974762 21.18040375 21.08557739 20.65153503 20.5581665 C19.04089946 18.95303593 17.42679828 17.35144598 15.8125 15.75 C14.72176968 14.66429907 13.63127331 13.57836305 12.54101562 12.4921875 C10.54416269 10.50342963 8.5459925 8.51601744 6.54614258 6.53027344 C4.35990177 4.35765864 2.17799652 2.18087451 0 0 Z " fill="#FBF9F8" transform="translate(229,164)"/>
<path d="M0 0 C1.875 1.125 1.875 1.125 3 3 C3.06098589 7.38326152 1.70905164 9.64815839 -1.15736389 12.75863647 C-2.57781549 14.19356267 -4.01222816 15.6147483 -5.45727539 17.02490234 C-6.6279229 18.19664505 -6.6279229 18.19664505 -7.82221985 19.39205933 C-10.40235654 21.96871525 -12.99974525 24.52721382 -15.59765625 27.0859375 C-17.39093431 28.86988933 -19.18311095 30.65494896 -20.97422791 32.44107056 C-25.20789382 36.65760247 -29.45249801 40.86280806 -33.70262665 45.06272185 C-38.54192904 49.84608557 -43.36699627 54.64370015 -48.19093335 59.44255137 C-58.11155492 69.31094769 -68.0498774 79.16135614 -78 89 C-79.17539996 88.07347299 -80.34010577 87.13336613 -81.5 86.1875 C-82.1496875 85.66542969 -82.799375 85.14335937 -83.46875 84.60546875 C-85 83 -85 83 -85 80 C-83.76457691 78.38146687 -83.76457691 78.38146687 -81.99653625 76.60212708 C-80.99767647 75.5862426 -80.99767647 75.5862426 -79.9786377 74.54983521 C-79.23843384 73.81256195 -78.49822998 73.0752887 -77.7355957 72.31567383 C-76.57721443 71.14458824 -76.57721443 71.14458824 -75.39543152 69.94984436 C-72.83005116 67.36098786 -70.25353778 64.78356109 -67.67578125 62.20703125 C-65.89384147 60.41799609 -64.1122036 58.62866016 -62.33085632 56.83903503 C-58.59075161 53.08546084 -54.84482401 49.33781986 -51.0949707 45.59399414 C-46.76001579 41.26567938 -42.44002334 36.922828 -38.12697917 32.57268888 C-33.97866343 28.38999389 -29.81655178 24.22122635 -25.64894676 20.05774498 C-23.87672404 18.28382494 -22.1085004 16.50590052 -20.34432411 14.72397804 C-17.87838435 12.2359773 -15.39717563 9.76427999 -12.91137695 7.29614258 C-12.18129425 6.55279663 -11.45121155 5.80945068 -10.69900513 5.0435791 C-10.01899948 4.37478226 -9.33899384 3.70598541 -8.63838196 3.016922 C-7.76037414 2.13784542 -7.76037414 2.13784542 -6.86462879 1.24100971 C-4.43054254 -0.37900425 -2.86886334 -0.31076515 0 0 Z " fill="#DADADA" transform="translate(348,285)"/>
<path d="M0 0 C12.21 0 24.42 0 37 0 C37 12.21 37 24.42 37 37 C36.67 37 36.34 37 36 37 C35.85304688 36.24976563 35.70609375 35.49953125 35.5546875 34.7265625 C32.96615962 22.91454446 28.0767916 14.00994198 18 7 C12.29691076 4.0290884 6.25099577 2.38911017 0 1 C0 0.67 0 0.34 0 0 Z " fill="#000000" transform="translate(463,0)"/>
<path d="M0 0 C12.21 0 24.42 0 37 0 C37 0.33 37 0.66 37 1 C36.09378906 1.21914063 35.18757813 1.43828125 34.25390625 1.6640625 C22.70854698 4.6695211 14.01930012 9.01943264 7 19 C3.76455382 24.68225235 2.15032146 30.59755292 1 37 C0.67 37 0.34 37 0 37 C0 24.79 0 12.58 0 0 Z " fill="#000000" transform="translate(0,0)"/>
<path d="M0 0 C0.33 0 0.66 0 1 0 C1 12.21 1 24.42 1 37 C-11.21 37 -23.42 37 -36 37 C-36 36.67 -36 36.34 -36 36 C-35.24976563 35.85304688 -34.49953125 35.70609375 -33.7265625 35.5546875 C-21.80795757 32.94280179 -13.18316335 28.02649884 -6 18 C-2.718507 12.34528438 -1.14945445 6.39762149 0 0 Z " fill="#000000" transform="translate(499,463)"/>
<path d="M0 0 C0.33 0 0.66 0 1 0 C1.14695313 0.75023437 1.29390625 1.50046875 1.4453125 2.2734375 C4.05719821 14.19204243 8.97350116 22.81683665 19 30 C24.65471562 33.281493 30.60237851 34.85054555 37 36 C37 36.33 37 36.66 37 37 C24.79 37 12.58 37 0 37 C0 24.79 0 12.58 0 0 Z " fill="#000000" transform="translate(0,463)"/>
</svg>
